<?xml version="1.0" encoding="utf-8"?>
<!-- Generator: Adobe Illustrator 22.0.1, SVG Export Plug-In . SVG Version: 6.00 Build 0)  -->
<svg version="1.1" id="Layer_1" xmlns="http://www.w3.org/2000/svg" xmlns:xlink="http://www.w3.org/1999/xlink" x="0px" y="0px"
	 viewBox="0 0 45 45" style="enable-background:new 0 0 45 45;" xml:space="preserve">
<style type="text/css">
	.st0{fill:none;stroke:#54565A;stroke-width:1.5484;stroke-miterlimit:10;}
	.st1{fill:none;stroke:#56575B;stroke-width:1.5484;stroke-miterlimit:10;}
	.st2{fill:none;stroke:#FAA51D;stroke-width:1.5484;stroke-miterlimit:10;}
</style>
<title>ulive icons_200px200px_24112017</title>
<path class="st0" d="M22.5,0.8c0.9,0,1.6,0.7,1.6,1.6c0,0,0,0,0,0v0.4c0,0.2,0.2,0.4,0.4,0.4h1.2c1.1,0,2,0.9,2,2c0,0,0,0,0,0v2
	H17.2v-2c0-1.1,0.9-2,2-2c0,0,0,0,0,0h1.2c0.2,0,0.4-0.2,0.4-0.4V2.4C20.9,1.6,21.6,0.8,22.5,0.8C22.5,0.8,22.5,0.8,22.5,0.8z"/>
<path class="st1" d="M27.9,5.1h7.7c0.9,0,1.6,0.7,1.6,1.6v35.8c0,0.9-0.7,1.6-1.6,1.6H9.5c-0.9,0-1.6-0.7-1.6-1.6V6.7
	c0-0.9,0.7-1.6,1.6-1.6h7.8"/>
<path class="st2" d="M11.7,17.1L11.7,17.1l0.5,0.6l0.8,0.9c0.1-0.1,0.2-0.2,0.3-0.3l2.6-2.6l0.2-0.2"/>
<line class="st1" x1="17.6" y1="17.3" x2="33.7" y2="17.3"/>
<line class="st1" x1="17.6" y1="23.4" x2="33.7" y2="23.4"/>
<line class="st1" x1="17.6" y1="29.4" x2="33.7" y2="29.4"/>
</svg>
