<?xml version="1.0" encoding="utf-8"?>
<!-- Generator: Adobe Illustrator 22.0.0, SVG Export Plug-In . SVG Version: 6.00 Build 0)  -->
<svg version="1.1" id="Layer_1" xmlns="http://www.w3.org/2000/svg" xmlns:xlink="http://www.w3.org/1999/xlink" x="0px" y="0px"
	 viewBox="0 0 45 45" style="enable-background:new 0 0 45 45;" xml:space="preserve">
<style type="text/css">
	.st0{fill:none;stroke:#414042;stroke-width:0.5;stroke-miterlimit:10;}
	.st1{fill:none;stroke:#FAA41A;stroke-width:0.5;stroke-miterlimit:10;}
	.st2{fill:none;stroke:#414042;stroke-width:0.25;stroke-miterlimit:10;}
	.st3{fill:none;stroke:#414042;stroke-width:0.4142;stroke-miterlimit:10;}
	.st4{fill:none;stroke:#FAA41A;stroke-width:0.4142;stroke-miterlimit:10;}
	.st5{fill:none;stroke:#414042;stroke-width:0.3;stroke-linejoin:round;}
	.st6{fill:none;stroke:#FAA41A;stroke-width:0.3;stroke-miterlimit:10;}
	.st7{fill:none;stroke:#414042;stroke-width:0.3313;stroke-linejoin:round;}
	.st8{fill:none;stroke:#FAA41A;stroke-width:0.3313;stroke-miterlimit:10;}
</style>
<line class="st0" x1="32.3" y1="30.3" x2="32.3" y2="42.6"/>
<line class="st0" x1="30.6" y1="30.3" x2="30.6" y2="42.6"/>
<line class="st0" x1="28.4" y1="30.3" x2="28.4" y2="42.6"/>
<circle class="st0" cx="26.6" cy="32.3" r="0.8"/>
<path class="st1" d="M30,32.2v0.9h-1v-0.9c0,0,0.1-0.6,0.5-0.6C30,31.6,30,32.2,30,32.2z"/>
<path class="st1" d="M30,35v0.9h-1V35c0,0,0.1-0.6,0.5-0.6C30,34.4,30,35,30,35z"/>
<path class="st1" d="M30,37.8v0.9h-1v-0.9c0,0,0.1-0.6,0.5-0.6C30,37.2,30,37.8,30,37.8z"/>
<path class="st1" d="M30,40.6v0.9h-1v-0.9c0,0,0.1-0.6,0.5-0.6C30,40,30,40.6,30,40.6z"/>
<line class="st0" x1="30.4" y1="24.1" x2="36.2" y2="24.1"/>
<line class="st0" x1="30.4" y1="26.9" x2="36.2" y2="26.9"/>
<polyline class="st0" points="30.4,29.2 30.4,24.1 36.2,24.1 36.2,29.2 "/>
<polyline class="st0" points="35.2,24.1 35.2,19.7 31.4,19.7 31.4,24.1 "/>
<rect x="31.4" y="24.9" class="st2" width="0.9" height="1.3"/>
<rect x="32.9" y="24.9" class="st2" width="0.9" height="1.3"/>
<rect x="34.3" y="24.9" class="st2" width="0.9" height="1.3"/>
<rect x="31.4" y="27.6" class="st2" width="0.9" height="1"/>
<rect x="32.9" y="27.6" class="st2" width="0.9" height="1"/>
<rect x="34.3" y="27.6" class="st2" width="0.9" height="1"/>
<line class="st0" x1="33.8" y1="42.6" x2="33.8" y2="30.3"/>
<polyline class="st0" points="22.5,24.1 22.5,24.1 30.4,24.1 31.4,24.1 "/>
<rect x="32.1" y="12.3" class="st0" width="2.5" height="4.3"/>
<rect x="30.4" y="16.6" class="st0" width="5.8" height="2.3"/>
<rect x="31.4" y="17.3" class="st1" width="0.9" height="1"/>
<rect x="32.9" y="17.3" class="st1" width="0.9" height="1"/>
<rect x="34.3" y="17.3" class="st1" width="0.9" height="1"/>
<rect x="31.6" y="9.9" class="st1" width="0.8" height="0.8"/>
<rect x="32.9" y="9.9" class="st1" width="0.8" height="0.8"/>
<rect x="34.2" y="9.9" class="st1" width="0.8" height="0.8"/>
<rect x="30.9" y="9.2" class="st0" width="4.8" height="2.2"/>
<line class="st0" x1="33.3" y1="4.2" x2="33.3" y2="1.3"/>
<path class="st0" d="M34.3,9.2V7.6c0,0,1,0,1-1.3s-2-2.1-2-2.1s-2,0.8-2,2.1s1,1.3,1,1.3v1.6"/>
<line class="st0" x1="12.7" y1="30.3" x2="12.7" y2="42.6"/>
<line class="st0" x1="14.4" y1="30.3" x2="14.4" y2="42.6"/>
<line class="st0" x1="16.6" y1="30.3" x2="16.6" y2="42.6"/>
<circle class="st0" cx="18.4" cy="32.3" r="0.8"/>
<path class="st1" d="M15,32.2v0.9h1v-0.9c0,0-0.1-0.6-0.5-0.6C15,31.6,15,32.2,15,32.2z"/>
<path class="st1" d="M15,35v0.9h1V35c0,0-0.1-0.6-0.5-0.6C15,34.4,15,35,15,35z"/>
<path class="st1" d="M15,37.8v0.9h1v-0.9c0,0-0.1-0.6-0.5-0.6C15,37.2,15,37.8,15,37.8z"/>
<path class="st1" d="M15,40.6v0.9h1v-0.9c0,0-0.1-0.6-0.5-0.6C15.1,40,15,40.6,15,40.6z"/>
<line class="st0" x1="14.6" y1="24.1" x2="8.8" y2="24.1"/>
<line class="st0" x1="14.6" y1="26.9" x2="8.8" y2="26.9"/>
<polyline class="st0" points="14.6,29.2 14.6,24.1 8.8,24.1 8.8,29.2 "/>
<polyline class="st0" points="9.8,24.1 9.8,19.7 13.6,19.7 13.6,24.1 "/>
<rect x="12.7" y="24.9" class="st2" width="0.9" height="1.3"/>
<rect x="11.2" y="24.9" class="st2" width="0.9" height="1.3"/>
<rect x="9.8" y="24.9" class="st2" width="0.9" height="1.3"/>
<rect x="12.7" y="27.6" class="st2" width="0.9" height="1"/>
<rect x="11.2" y="27.6" class="st2" width="0.9" height="1"/>
<rect x="9.8" y="27.6" class="st2" width="0.9" height="1"/>
<path class="st1" d="M17.9,42.4L17.9,42.4v-5.6c0.2-2.1,4.6-4.6,4.6-4.6s4.4,2.5,4.6,4.6v5.6l0,0"/>
<line class="st0" x1="11.2" y1="30.3" x2="11.2" y2="42.6"/>
<polyline class="st0" points="13.6,24.1 14.6,24.1 22.5,24.1 22.5,24.1 "/>
<path class="st0" d="M29,26.2c0.4,0,0.8,0.6,0.8,1.1v1.5h-1.6v-1.5C28.2,26.7,28.6,26.2,29,26.2"/>
<path class="st0" d="M24.7,26.2c0.4,0,0.8,0.6,0.8,1.1v1.5h-1.6v-1.5C23.9,26.7,24.3,26.2,24.7,26.2"/>
<path class="st0" d="M26.8,26.2c0.4,0,0.8,0.6,0.8,1.1v1.5h-1.6v-1.5C26.1,26.7,26.4,26.2,26.8,26.2"/>
<path class="st0" d="M16,26.2c-0.4,0-0.8,0.6-0.8,1.1v1.5h1.6v-1.5C16.8,26.7,16.4,26.2,16,26.2"/>
<path class="st0" d="M20.3,26.2c-0.4,0-0.8,0.6-0.8,1.1v1.5h1.6v-1.5C21.1,26.7,20.8,26.2,20.3,26.2"/>
<path class="st0" d="M18.2,26.2c-0.4,0-0.8,0.6-0.8,1.1v1.5h1.6v-1.5C18.9,26.7,18.6,26.2,18.2,26.2"/>
<path class="st0" d="M22.5,28.7h-0.8v-1.5c0-0.5,0.4-1.1,0.8-1.1l0,0c0.4,0,0.8,0.6,0.8,1.1v1.5H22.5z"/>
<path class="st1" d="M30.5,22.4c0.2,0,0.4,0.3,0.4,0.5v0.7h-0.7v-0.7C30.2,22.7,30.3,22.4,30.5,22.4"/>
<path class="st1" d="M29.2,22.4c0.2,0,0.4,0.3,0.4,0.5v0.7h-0.7v-0.7C28.8,22.7,29,22.4,29.2,22.4"/>
<path class="st1" d="M27.9,22.4c0.2,0,0.4,0.3,0.4,0.5v0.7h-0.7v-0.7C27.5,22.7,27.7,22.4,27.9,22.4"/>
<path class="st1" d="M26.5,22.4c0.2,0,0.4,0.3,0.4,0.5v0.7h-0.7v-0.7C26.2,22.7,26.3,22.4,26.5,22.4"/>
<path class="st1" d="M25.2,22.4c0.2,0,0.4,0.3,0.4,0.5v0.7h-0.7v-0.7C24.8,22.7,25,22.4,25.2,22.4"/>
<path class="st1" d="M23.8,22.4c0.2,0,0.4,0.3,0.4,0.5v0.7h-0.7v-0.7C23.5,22.7,23.7,22.4,23.8,22.4"/>
<path class="st1" d="M14.5,22.4c-0.2,0-0.4,0.3-0.4,0.5v0.7h0.7v-0.7C14.8,22.7,14.7,22.4,14.5,22.4"/>
<path class="st1" d="M15.8,22.4c-0.2,0-0.4,0.3-0.4,0.5v0.7h0.7v-0.7C16.2,22.7,16,22.4,15.8,22.4"/>
<path class="st1" d="M17.2,22.4c-0.2,0-0.4,0.3-0.4,0.5v0.7h0.7v-0.7C17.5,22.7,17.3,22.4,17.2,22.4"/>
<path class="st1" d="M18.5,22.4c-0.2,0-0.4,0.3-0.4,0.5v0.7h0.7v-0.7C18.9,22.7,18.7,22.4,18.5,22.4"/>
<path class="st1" d="M19.8,22.4c-0.2,0-0.4,0.3-0.4,0.5v0.7h0.7v-0.7C20.2,22.7,20,22.4,19.8,22.4"/>
<path class="st1" d="M21.2,22.4c-0.2,0-0.4,0.3-0.4,0.5v0.7h0.7v-0.7C21.5,22.7,21.4,22.4,21.2,22.4"/>
<path class="st1" d="M22.5,23.6h-0.4v-0.7c0-0.2,0.2-0.5,0.4-0.5l0,0c0.2,0,0.4,0.3,0.4,0.5v0.7L22.5,23.6z"/>
<polyline class="st0" points="31.4,21.9 22.5,21.9 22.5,21.9 22.5,21.9 13.6,21.9 13.6,20.6 22.5,20.6 22.5,20.6 22.5,20.6 
	31.4,20.6 "/>
<rect x="10.4" y="12.3" class="st0" width="2.5" height="4.3"/>
<rect x="8.8" y="16.6" class="st0" width="5.8" height="2.3"/>
<rect x="12.7" y="17.3" class="st1" width="0.9" height="1"/>
<rect x="11.2" y="17.3" class="st1" width="0.9" height="1"/>
<rect x="9.8" y="17.3" class="st1" width="0.9" height="1"/>
<rect x="12.6" y="9.9" class="st1" width="0.8" height="0.8"/>
<rect x="11.3" y="9.9" class="st1" width="0.8" height="0.8"/>
<rect x="10" y="9.9" class="st1" width="0.8" height="0.8"/>
<rect x="9.3" y="9.2" class="st0" width="4.8" height="2.2"/>
<line class="st0" x1="11.7" y1="4.2" x2="11.7" y2="1.3"/>
<path class="st0" d="M10.7,9.2V7.6c0,0-1,0-1-1.3s2-2.1,2-2.1s2,0.8,2,2.1s-1,1.3-1,1.3v1.6"/>
<polygon class="st0" points="37.1,30.3 37.1,30.3 37.1,29.2 36.2,29.2 30.4,29.2 22.5,29.2 22.5,29.2 22.5,29.2 14.6,29.2 8.8,29.2 
	7.9,29.2 7.9,30.3 7.9,30.3 7.9,30.3 9.8,30.3 11.2,30.3 16.6,30.3 22.5,30.3 22.5,30.3 "/>
<polyline class="st0" points="9.9,30.3 35.2,30.3 35.2,30.3 35.2,42.6 9.9,42.6 9.9,30.3 "/>
</svg>
