<?xml version="1.0" encoding="utf-8"?>
<!-- Generator: Adobe Illustrator 22.0.0, SVG Export Plug-In . SVG Version: 6.00 Build 0)  -->
<svg version="1.1" id="Layer_1" xmlns="http://www.w3.org/2000/svg" xmlns:xlink="http://www.w3.org/1999/xlink" x="0px" y="0px"
	 viewBox="0 0 45 45" style="enable-background:new 0 0 45 45;" xml:space="preserve">
<style type="text/css">
	.st0{fill:none;stroke:#414042;stroke-width:0.5;stroke-miterlimit:10;}
	.st1{fill:none;stroke:#FAA41A;stroke-width:0.5;stroke-miterlimit:10;}
	.st2{fill:none;stroke:#414042;stroke-width:0.25;stroke-miterlimit:10;}
	.st3{fill:none;stroke:#414042;stroke-width:0.4142;stroke-miterlimit:10;}
	.st4{fill:none;stroke:#FAA41A;stroke-width:0.4142;stroke-miterlimit:10;}
	.st5{fill:none;stroke:#414042;stroke-width:0.3;stroke-linejoin:round;}
	.st6{fill:none;stroke:#FAA41A;stroke-width:0.3;stroke-miterlimit:10;}
	.st7{fill:none;stroke:#414042;stroke-width:0.3313;stroke-linejoin:round;}
	.st8{fill:none;stroke:#FAA41A;stroke-width:0.3313;stroke-miterlimit:10;}
</style>
<g>
	<g>
		<path class="st0" d="M41.6,25.6h0.8v15.7h-2.2v-1.1c0-0.1,0-0.2-0.1-0.3c-0.1-0.1-0.2-0.1-0.3-0.1h-3.7v-1.2
			c0-0.2-0.2-0.4-0.4-0.4h-1v-1.1c0-0.2-0.2-0.4-0.4-0.4c0,0,0,0,0,0h-0.1c0-0.1,0-0.1,0.1-0.2v-0.8c0-0.1,0-0.2-0.1-0.3
			c-0.1-0.1-0.1-0.1-0.2-0.1v-8.5h0.3c0.2,0,0.4-0.2,0.4-0.4v-0.6c0-0.1,0-0.2-0.1-0.2h6.8C41.5,25.7,41.5,25.6,41.6,25.6z"/>
		<rect x="32.1" y="36.1" class="st1" width="0.9" height="0"/>
		<path class="st0" d="M33,25.1H11.4c-0.1-0.1-0.2-0.2-0.3-0.2l0,0c0,0,0,0,0,0V24h22.5v0.8c-0.1,0-0.1,0-0.2,0h0
			C33.2,24.9,33,24.9,33,25.1z"/>
		<path class="st1" d="M31.4,36.8h-0.1c0-0.1,0-0.1,0.1-0.2v-0.8c0-0.1,0-0.2-0.1-0.3c-0.1-0.1-0.1-0.1-0.2-0.1v-8.5h0.7v8.5
			c-0.1,0-0.2,0-0.2,0.1c-0.1,0.1-0.1,0.2-0.1,0.3v0.8C31.3,36.6,31.4,36.7,31.4,36.8z"/>
		<rect x="29.2" y="36.1" class="st1" width="1.3" height="0"/>
		<path class="st1" d="M28.5,36.8h-1.1c0-0.1,0.1-0.1,0.1-0.2v-0.8c0-0.1,0-0.2-0.1-0.3c-0.1-0.1-0.1-0.1-0.2-0.1v-8.5h0.4
			c0.2,0,0.4-0.2,0.4-0.4v-0.6H28v0.6c0,0.2,0.2,0.4,0.4,0.4h0.4v8.5c-0.1,0-0.2,0-0.2,0.1c-0.1,0.1-0.1,0.2-0.1,0.3v0.8
			C28.4,36.6,28.4,36.7,28.5,36.8z"/>
		<rect x="25.4" y="36.1" class="st1" width="1.3" height="0"/>
		<path class="st1" d="M24.6,36.8h-1c0-0.1,0.1-0.1,0.1-0.2v-0.8c0-0.1,0-0.2-0.1-0.3c-0.1-0.1-0.1-0.1-0.2-0.1v-8.5h0.4
			c0.2,0,0.4-0.2,0.4-0.4c0,0,0,0,0,0l0,0v-0.6h0v0.6c0,0.1,0,0.2,0.1,0.3c0.1,0.1,0.2,0.1,0.3,0.1h0.4v8.5c-0.1,0-0.2,0-0.2,0.1
			c-0.1,0.1-0.1,0.2-0.1,0.3v0.8C24.6,36.6,24.6,36.7,24.6,36.8z"/>
		<rect x="21.6" y="36.1" class="st1" width="1.3" height="0"/>
		<path class="st1" d="M20.9,36.8h-1c0-0.1,0.1-0.1,0.1-0.2v-0.8c0-0.1,0-0.2-0.1-0.3c-0.1-0.1-0.1-0.1-0.2-0.1v-8.5H20
			c0.2,0,0.4-0.2,0.4-0.4v-0.6h0v0.6c0,0.2,0.2,0.4,0.4,0.4c0,0,0,0,0,0h0.4v8.5c-0.1,0-0.2,0-0.2,0.1c-0.1,0.1-0.1,0.2-0.1,0.3v0.8
			C20.8,36.6,20.8,36.7,20.9,36.8z"/>
		<rect x="17.9" y="36.1" class="st1" width="1.3" height="0"/>
		<path class="st1" d="M17.1,36.8H16c0-0.1,0.1-0.1,0.1-0.2v-0.8c0-0.2-0.1-0.4-0.3-0.4v-8.5h0.4c0.1,0,0.2,0,0.3-0.1
			c0.1-0.1,0.1-0.2,0.1-0.3v-0.6h0.2v0.6c0,0.1,0,0.2,0.1,0.3c0.1,0.1,0.2,0.1,0.3,0.1h0.4v8.5c-0.1,0-0.2,0-0.2,0.1
			c-0.1,0.1-0.1,0.2-0.1,0.3v0.8C17.1,36.6,17.1,36.7,17.1,36.8z"/>
		<rect x="14" y="36.1" class="st1" width="1.3" height="0"/>
		<path class="st1" d="M13.2,36.8h-0.1c0-0.1,0.1-0.1,0.1-0.2v-0.8c0-0.2-0.1-0.4-0.3-0.4v-8.5h0.7v8.5c-0.2,0-0.3,0.2-0.3,0.4v0.8
			C13.2,36.6,13.2,36.7,13.2,36.8z"/>
		<rect x="11.3" y="36.1" class="st1" width="1.1" height="0"/>
		<path class="st0" d="M36.2,22.7c-0.1-0.1-0.2-0.1-0.3-0.1h-0.1c-0.2-0.2-0.3-0.5-0.5-0.8H41v3.1h-6.7v-1h1.6
			c0.2,0,0.4-0.2,0.4-0.4V23C36.3,22.9,36.2,22.7,36.2,22.7z"/>
		<path class="st1" d="M37.1,19.3c0-0.4,0.1-0.7,0.3-1c0,0,0-0.1,0.1-0.1c0.2,0.3,0.4,0.7,0.4,1.1c0,0.1,0,0.2,0,0.3h-0.8
			C37.1,19.6,37.1,19.4,37.1,19.3z"/>
		<path class="st0" d="M33.6,18.1v-0.3c0.1-0.9,1-1.8,2-2.5c0.5-0.3,0.9-0.6,1.4-0.9c0.2-0.1,0.4-0.2,0.5-0.2
			c0.1,0.1,0.3,0.1,0.5,0.2c0.8,0.4,1.5,0.9,2.2,1.5c0.7,0.6,1.1,1.3,1.2,1.9v0.3c0,0.5-0.2,1.1-0.5,1.5h-2.1c0-0.1,0-0.2,0-0.3
			c0-1.2-0.9-2-1-2c-0.2-0.1-0.4-0.1-0.6,0c0,0-0.9,0.8-1,2c0,0.1,0,0.2,0,0.3h-2.1C33.8,19.2,33.6,18.7,33.6,18.1
			C33.6,18.2,33.6,18.1,33.6,18.1z"/>
		<rect x="20.8" y="2.3" class="st0" width="2.9" height="0.8"/>
		<path class="st0" d="M20.9,3.9h2.8c0.3,0.1,0.6,0.3,0.9,0.5h-4.6C20.2,4.1,20.6,4,20.9,3.9z"/>
		<path class="st0" d="M18.5,5.1c0,0,0.1,0,0.1,0h7.1c0,0,0.1,0,0.1,0c0.4,0.2,0.7,0.5,1,0.7h-9.5C17.8,5.6,18.2,5.3,18.5,5.1z"/>
		<path class="st0" d="M15.6,8.7V8.4c0-0.6,0.4-1.2,1-1.9c0.1,0,0.1,0.1,0.2,0.1h10.7c0.1,0,0.2,0,0.2-0.1c0.6,0.6,1,1.3,1,1.9v0.3
			c0,0.8-0.4,1.6-1,2.1h-4c0-0.3,0.1-0.5,0.1-0.8c0-1.6-1.3-2.8-1.3-2.8C22.4,7,22.1,7,22,7.2c0,0-1.3,1.2-1.3,2.8
			c0,0.3,0,0.5,0.1,0.8h-4C16,10.3,15.7,9.5,15.6,8.7z"/>
		<path class="st0" d="M23.1,10c0,0.2,0,0.5-0.1,0.7h-1.5c0-0.2-0.1-0.5-0.1-0.7c0-0.6,0.2-1.1,0.5-1.6c0.1-0.1,0.2-0.2,0.3-0.4
			C22.6,8.5,23.1,9.3,23.1,10z"/>
		<rect x="26.3" y="15.9" class="st0" width="3.2" height="4.3"/>
		<path class="st0" d="M22.6,15.9h2.9v4.3h-1.6c0.2-0.4,0.3-0.9,0.2-1.3C24.2,17.3,22.9,16.2,22.6,15.9z"/>
		<path class="st0" d="M20.5,20.2H19v-4.3h2.9c-0.3,0.3-1.6,1.4-1.6,3C20.3,19.3,20.4,19.8,20.5,20.2z"/>
		<path class="st0" d="M21.8,17.2c0.1-0.2,0.3-0.3,0.5-0.5c0.4,0.4,1.2,1.3,1.1,2.2c0,0.3,0,0.6-0.1,0.9h-2
			c-0.1-0.3-0.1-0.6-0.1-0.9C21.1,18.3,21.4,17.7,21.8,17.2z"/>
		<rect x="15" y="15.9" class="st0" width="3.2" height="4.3"/>
		<path class="st0" d="M10.9,21h22.8c0.1,0,0.2,0.1,0.2,0.2l0,0l0.2,0.3c0,0,0,0,0,0.1l0,0c0,0,0.1,0.1,0.1,0.1l0,0
			c0.2,0.3,0.4,0.6,0.6,0.9H9.7c0.2-0.2,0.3-0.5,0.5-0.8c0.1-0.2,0.3-0.4,0.5-0.6C10.7,21.1,10.8,21.1,10.9,21z"/>
		<path class="st1" d="M6.4,19.3c0-0.4,0.1-0.7,0.3-1c0,0,0.1-0.1,0.1-0.1c0.2,0.3,0.4,0.7,0.4,1.1c0,0.1,0,0.2,0,0.3H6.5
			C6.4,19.6,6.4,19.4,6.4,19.3z"/>
		<path class="st0" d="M3.4,21.7h5.8C9,22,8.9,22.3,8.7,22.6H8.6c-0.2,0-0.4,0.2-0.4,0.4v0.4c0,0.2,0.2,0.4,0.4,0.4h1.6v1H3.4V21.7z
			"/>
		<path class="st0" d="M3,18.1v-0.3c0.1-0.9,1-1.8,2-2.5c0.5-0.3,0.9-0.6,1.4-0.9c0.2-0.1,0.4-0.2,0.5-0.2c0.1,0.1,0.3,0.1,0.5,0.2
			c0.8,0.4,1.5,0.9,2.2,1.5c0.7,0.6,1.1,1.3,1.2,1.9v0.3c0,0.5-0.2,1.1-0.5,1.5H8.1c0-0.1,0-0.2,0-0.3c0-1.2-0.9-2-1-2
			c-0.2-0.1-0.4-0.1-0.6,0c0,0-0.9,0.8-1,2c0,0.1,0,0.2,0,0.3H3.5C3.2,19.2,3,18.7,3,18.1C3,18.2,3,18.1,3,18.1z"/>
		<path class="st0" d="M2,25.6h0.8c0.1,0,0.1,0,0.2,0h7c-0.1,0.1-0.1,0.2-0.1,0.2v0.6c0,0.2,0.2,0.4,0.4,0.4c0,0,0,0,0,0h0.2v8.5
			c0,0-0.1,0-0.1,0.1c-0.1,0.1-0.1,0.2-0.1,0.3v0.8c0,0.1,0,0.2,0.1,0.2c-0.1,0-0.1,0-0.2,0.1c-0.1,0.1-0.1,0.2-0.1,0.3v1.1h-1
			c-0.2,0-0.4,0.2-0.4,0.4v1.2H4.9c-0.1,0-0.2,0-0.3,0.1c-0.1,0.1-0.1,0.2-0.1,0.3v1.1H2V25.6z"/>
		<line class="st0" x1="40.9" y1="20.7" x2="34.9" y2="20.7"/>
		<line class="st0" x1="9.3" y1="20.7" x2="3.3" y2="20.7"/>
		<line class="st1" x1="27.7" y1="11.9" x2="16.8" y2="11.9"/>
		<line class="st1" x1="15.6" y1="14.8" x2="28.9" y2="14.8"/>
		<rect x="16.3" y="12.9" class="st1" width="11.9" height="0.9"/>
		<path class="st0" d="M40,30c-0.1-0.1-0.2-0.3-0.2-0.4c-0.2-0.2-0.3-0.5-0.7-0.6v-0.9c0-0.6-0.4-1.1-0.9-1.2v-0.5
			c0-0.2-0.2-0.4-0.4-0.4s-0.4,0.2-0.4,0.4l0,0l0,0v0.5c-0.5,0.2-0.9,0.7-0.9,1.2l0,0V29c-0.5,0.1-0.6,0.4-0.7,0.6
			c-0.1,0.1-0.2,0.3-0.2,0.4c-0.1,0-0.1,0.1-0.2,0.1c-0.1,0.1-0.1,0.2-0.1,0.3v0.2c0,0.1,0,0.2,0.1,0.3c0.1,0.1,0.2,0.1,0.3,0.1H36
			v1.8h-0.2c-0.1,0-0.2,0-0.3,0.1c-0.1,0.1-0.1,0.2-0.1,0.3V34c0,0.1,0,0.2,0.1,0.3c0.1,0.1,0.2,0.1,0.3,0.1h3.9
			c0.2,0,0.4-0.2,0.4-0.4c0,0,0,0,0,0l0,0v-0.8c0-0.2-0.2-0.4-0.4-0.4c0,0,0,0,0,0h-0.2V31h0.4c0.1,0,0.2,0,0.3-0.1
			c0.1-0.1,0.1-0.2,0.1-0.3v-0.2C40.3,30.2,40.2,30.1,40,30L40,30z"/>
		<path class="st0" d="M37.7,27.6c0.3,0,0.5,0.2,0.5,0.5s-0.2,0.5-0.5,0.5c-0.3,0-0.5-0.2-0.5-0.5l0,0
			C37.2,27.9,37.4,27.6,37.7,27.6z"/>
		<rect x="36.7" y="31" class="st1" width="1.9" height="1.8"/>
		<line class="st0" x1="38.9" y1="29.9" x2="36.5" y2="29.9"/>
		<line class="st0" x1="39" y1="33.5" x2="36.4" y2="33.5"/>
		<path class="st0" d="M9,30c-0.1-0.1-0.2-0.3-0.2-0.4C8.6,29.4,8.4,29.1,8,29v-0.9c0-0.6-0.4-1.1-0.9-1.2v-0.5
			c0-0.2-0.1-0.4-0.4-0.4c-0.2,0-0.4,0.1-0.4,0.4l0,0c0,0,0,0,0,0.1v0.5c-0.5,0.2-0.9,0.7-0.9,1.2l0,0V29c-0.5,0.1-0.6,0.4-0.7,0.6
			c-0.1,0.1-0.2,0.3-0.2,0.4c-0.1,0-0.1,0.1-0.2,0.1c-0.1,0.1-0.1,0.2-0.1,0.3v0.2c0,0.1,0,0.2,0.1,0.3C4.3,30.9,4.4,31,4.5,31h0.4
			v1.8H4.7c-0.2,0-0.4,0.2-0.4,0.4c0,0,0,0,0,0V34c0,0.1,0,0.2,0.1,0.3c0.1,0.1,0.2,0.1,0.3,0.1h3.9c0.1,0,0.2,0,0.3-0.1
			C9,34.2,9,34.1,9,34v-0.9c0-0.1,0-0.2-0.1-0.3c-0.1-0.1-0.2-0.1-0.3-0.1H8.4V31h0.4c0.1,0,0.2,0,0.3-0.1c0.1-0.1,0.1-0.2,0.1-0.3
			v-0.2C9.3,30.2,9.1,30.1,9,30L9,30z"/>
		<path class="st0" d="M6.7,27.6c0.3,0,0.5,0.2,0.5,0.5s-0.2,0.5-0.5,0.5s-0.5-0.2-0.5-0.5l0,0C6.2,27.9,6.4,27.6,6.7,27.6z"/>
		<rect x="5.7" y="31" class="st1" width="1.9" height="1.8"/>
		<line class="st0" x1="7.9" y1="29.9" x2="5.5" y2="29.9"/>
		<line class="st0" x1="8" y1="33.5" x2="5.4" y2="33.5"/>
		<line class="st0" x1="39.4" y1="41" x2="5.3" y2="41"/>
		<line class="st0" x1="9.5" y1="39.4" x2="35.3" y2="39.4"/>
		<line class="st0" x1="33.9" y1="37.9" x2="10.8" y2="37.9"/>
		<line class="st1" x1="11.8" y1="35" x2="11.8" y2="27.1"/>
		<line class="st1" x1="14.6" y1="35" x2="14.6" y2="27.1"/>
		<line class="st1" x1="18.5" y1="35.5" x2="18.5" y2="27.6"/>
		<line class="st1" x1="22.2" y1="35.5" x2="22.2" y2="27.6"/>
		<line class="st1" x1="26" y1="35.5" x2="26" y2="27.6"/>
		<line class="st1" x1="29.8" y1="35.5" x2="29.8" y2="27.6"/>
		<line class="st1" x1="32.6" y1="35.5" x2="32.6" y2="27.6"/>
	</g>
</g>
</svg>
