<?xml version="1.0" encoding="utf-8"?>
<!-- Generator: Adobe Illustrator 22.0.0, SVG Export Plug-In . SVG Version: 6.00 Build 0)  -->
<svg version="1.1" id="Layer_1" xmlns="http://www.w3.org/2000/svg" xmlns:xlink="http://www.w3.org/1999/xlink" x="0px" y="0px"
	 viewBox="0 0 45 45" style="enable-background:new 0 0 45 45;" xml:space="preserve">
<style type="text/css">
	.st0{fill:none;stroke:#414042;stroke-width:0.5;stroke-miterlimit:10;}
	.st1{fill:none;stroke:#FAA41A;stroke-width:0.5;stroke-miterlimit:10;}
	.st2{fill:none;stroke:#414042;stroke-width:0.25;stroke-miterlimit:10;}
	.st3{fill:none;stroke:#414042;stroke-width:0.4142;stroke-miterlimit:10;}
	.st4{fill:none;stroke:#FAA41A;stroke-width:0.4142;stroke-miterlimit:10;}
	.st5{fill:none;stroke:#414042;stroke-width:0.3;stroke-linejoin:round;}
	.st6{fill:none;stroke:#FAA41A;stroke-width:0.3;stroke-miterlimit:10;}
	.st7{fill:none;stroke:#414042;stroke-width:0.3313;stroke-linejoin:round;}
	.st8{fill:none;stroke:#FAA41A;stroke-width:0.3313;stroke-miterlimit:10;}
</style>
<g>
	<path class="st3" d="M1.1,24.9h10.7v10.8h-1.7v-6.3h0.2c0.2,0,0.3-0.1,0.3-0.3c0-0.2-0.1-0.3-0.3-0.3c0,0,0,0,0,0h-0.2v-0.1
		c0-2.3-2.7-3.3-2.8-3.3l0,0h0H7.2h0h0l0,0c-0.1,0-2.8,0.9-2.8,3.3v0.1H4.2c-0.2,0-0.3,0.2-0.3,0.3c0,0.1,0.1,0.3,0.3,0.3h0.2v6.3
		H1.1V24.9z"/>
	<rect x="2.7" y="22.5" class="st4" width="1" height="1.9"/>
	<rect x="4.3" y="22.5" class="st4" width="1" height="1.9"/>
	<rect x="5.9" y="22.5" class="st4" width="1" height="1.9"/>
	<rect x="7.6" y="22.5" class="st4" width="1" height="1.9"/>
	<rect x="9.2" y="22.5" class="st4" width="1" height="1.9"/>
	<rect x="10.8" y="22.5" class="st4" width="1" height="1.9"/>
	<polygon class="st3" points="12.8,22.5 16,22.5 16.3,22.5 16.3,35.7 12.4,35.7 12.4,24.7 12.4,22.5 	"/>
	<polygon class="st3" points="16.3,19.3 17.4,19.3 17.4,21.9 16.6,21.9 16.3,21.9 	"/>
	<rect x="33.2" y="22.5" class="st4" width="1" height="1.9"/>
	<rect x="34.9" y="22.5" class="st4" width="1" height="1.9"/>
	<rect x="36.5" y="22.5" class="st4" width="1" height="1.9"/>
	<rect x="38.1" y="22.5" class="st4" width="1" height="1.9"/>
	<rect x="39.7" y="22.5" class="st4" width="1" height="1.9"/>
	<rect x="41.3" y="22.5" class="st4" width="1" height="1.9"/>
	<path class="st4" d="M37.8,30.8c0.7,0.2,1.1,0.9,1.1,1.6c0,0.1,0.1,0.3,0.2,0.3v3.1h-2.8v-3.1c0.1,0,0.2-0.1,0.2-0.3
		C36.6,31.6,37.1,31,37.8,30.8z"/>
	<path class="st4" d="M39.5,32.1c-0.1-0.9-0.8-1.7-1.7-1.9h0h0h0h0h0c-0.9,0.3-1.5,1-1.7,1.9c-0.1,0-0.3,0.1-0.3,0.3v3.3h-0.3v-6.3
		H40v6.3h-0.3v-3.3C39.8,32.2,39.7,32.1,39.5,32.1z"/>
	<path class="st4" d="M37.8,26c0.4,0.2,2.3,1,2.3,2.7v0.1h-4.5v-0.1C35.5,27,37.3,26.2,37.8,26z"/>
	<path class="st3" d="M40.6,29.4h0.2c0.2,0,0.3-0.2,0.3-0.3c0-0.1-0.1-0.3-0.3-0.3h-0.2v-0.1c0-2.3-2.7-3.3-2.8-3.3l0,0h0h-0.1h0h0
		l0,0c-0.1,0-2.8,0.9-2.8,3.3v0.1h-0.2c-0.2,0-0.3,0.2-0.3,0.3c0,0.1,0.1,0.3,0.3,0.3H35v6.3h-1.7V24.9H44v10.8h-3.3L40.6,29.4
		L40.6,29.4z"/>
	<polygon class="st3" points="32.6,22.5 32.6,24.7 32.6,24.7 32.6,35.7 28.7,35.7 28.7,22.5 29.1,22.5 32.3,22.5 	"/>
	<rect x="29.4" y="19.3" class="st3" width="2.6" height="2.6"/>
	<polygon class="st3" points="28.8,21.9 28.4,21.9 27.7,21.9 27.7,19.3 28.8,19.3 	"/>
	<path class="st4" d="M22.5,23.8c0.6,0.2,3.9,1.4,3.9,5.3c0,0.2,0.1,0.3,0.3,0.3l0,0h0.4v6.3h-9.2v-6.3h0.4c0.2,0,0.3-0.1,0.3-0.3
		C18.6,25.2,22,24,22.5,23.8z"/>
	<path class="st3" d="M27.4,28.8H27c-0.2-4.4-4.4-5.6-4.4-5.6h0h0h-0.1h0h0c0,0-4.2,1.2-4.4,5.6h-0.4c-0.2,0-0.3,0.1-0.3,0.3l0,0
		v6.7h-0.4V22.5h11.2v13.3h-0.4v-6.7C27.7,28.9,27.6,28.8,27.4,28.8z"/>
	<rect x="26" y="19.3" class="st3" width="1" height="2.6"/>
	<rect x="24.4" y="19.3" class="st3" width="1" height="2.6"/>
	<rect x="22.8" y="19.3" class="st3" width="1" height="2.6"/>
	<rect x="21.2" y="19.3" class="st3" width="1" height="2.6"/>
	<rect x="19.6" y="19.3" class="st3" width="1" height="2.6"/>
	<rect x="18" y="19.3" class="st3" width="1" height="2.6"/>
	<path class="st4" d="M7.2,26c0.4,0.2,2.3,1,2.3,2.7v0.1H5v-0.1C5,27,6.8,26.2,7.2,26z"/>
	<path class="st4" d="M5,29.4h4.5v6.3H9.3v-3.3c0-0.1-0.1-0.3-0.3-0.3c-0.1-0.9-0.8-1.7-1.7-1.9h0h0h0h0h0c-0.9,0.3-1.5,1-1.7,1.9
		c-0.1,0-0.3,0.1-0.3,0.3v3.3H5L5,29.4L5,29.4z"/>
	<path class="st4" d="M7.2,30.8c0.7,0.2,1.1,0.9,1.1,1.6c0,0.1,0.1,0.3,0.2,0.3v3.1H5.9v-3.1c0.1,0,0.2-0.1,0.2-0.3
		C6.1,31.6,6.6,31,7.2,30.8z"/>
	<rect x="42.9" y="22.5" class="st4" width="1" height="1.9"/>
	<polygon class="st3" points="43.9,21.9 32.9,21.9 32.9,21.9 32.6,21.9 32.6,19.3 43.9,19.3 	"/>
	<rect x="13.1" y="19.3" class="st3" width="2.6" height="2.6"/>
	<polygon class="st3" points="1.1,19.3 12.5,19.3 12.5,21.9 12.1,21.9 1.1,21.9 	"/>
	<rect x="1.1" y="22.5" class="st4" width="1" height="1.9"/>
	<path class="st4" d="M13,23.7h2.8c0.2,0,0.3-0.1,0.3-0.3c0-0.2-0.1-0.3-0.3-0.3H13c-0.2,0-0.3,0.1-0.3,0.3
		C12.7,23.6,12.8,23.7,13,23.7z"/>
	<path class="st4" d="M32.1,23.1h-2.8c-0.2,0-0.3,0.1-0.3,0.3c0,0.2,0.1,0.3,0.3,0.3h2.8c0.2,0,0.3-0.1,0.3-0.3
		C32.3,23.2,32.2,23.1,32.1,23.1z"/>
	<path class="st4" d="M13,24.9h2.8c0.2,0,0.3-0.1,0.3-0.3s-0.1-0.3-0.3-0.3H13c-0.2,0-0.3,0.1-0.3,0.3S12.8,24.9,13,24.9z"/>
	<path class="st4" d="M32.1,24.4h-2.8c-0.2,0-0.3,0.1-0.3,0.3s0.1,0.3,0.3,0.3h2.8c0.2,0,0.3-0.1,0.3-0.3S32.2,24.4,32.1,24.4z"/>
	<rect x="13.3" y="14.7" class="st3" width="2.2" height="3.2"/>
	<rect x="13.3" y="11.1" class="st3" width="2.2" height="3"/>
	<polygon class="st3" points="22.5,14.7 29,14.7 29,17.8 22.5,17.8 16.1,17.8 16.1,14.7 	"/>
	<rect x="29.6" y="11.1" class="st3" width="2.2" height="3"/>
	<rect x="29.6" y="14.7" class="st3" width="2.2" height="3.2"/>
	<polygon class="st3" points="30.7,9.3 31.5,10.5 29.8,10.5 	"/>
	<polygon class="st3" points="22.5,13.3 29,13.3 29,14.1 22.5,14.1 16.1,14.1 16.1,13.3 	"/>
	<polygon class="st3" points="14.4,9.3 15.2,10.5 13.5,10.5 	"/>
	<path class="st3" d="M14.4,11.6c-0.2,0-0.3,0.1-0.3,0.3V13c0,0.2,0.2,0.3,0.3,0.3c0.1,0,0.3-0.1,0.3-0.3v-1.2
		C14.7,11.7,14.5,11.6,14.4,11.6z"/>
	<path class="st3" d="M30.7,13.3c0.2,0,0.3-0.1,0.3-0.3l0,0v-1.2c0-0.2-0.1-0.3-0.3-0.3c-0.2,0-0.3,0.1-0.3,0.3V13
		C30.4,13.2,30.5,13.3,30.7,13.3L30.7,13.3z"/>
	<line class="st3" x1="1" y1="18.6" x2="44" y2="18.6"/>
</g>
</svg>
