<?xml version="1.0" encoding="utf-8"?>
<!-- Generator: Adobe Illustrator 22.0.0, SVG Export Plug-In . SVG Version: 6.00 Build 0)  -->
<svg version="1.1" id="Layer_1" xmlns="http://www.w3.org/2000/svg" xmlns:xlink="http://www.w3.org/1999/xlink" x="0px" y="0px"
	 viewBox="0 0 45 45" style="enable-background:new 0 0 45 45;" xml:space="preserve">
<style type="text/css">
	.st0{fill:none;stroke:#414042;stroke-width:0.5;stroke-miterlimit:10;}
	.st1{fill:none;stroke:#FAA41A;stroke-width:0.5;stroke-miterlimit:10;}
	.st2{fill:none;stroke:#414042;stroke-width:0.25;stroke-miterlimit:10;}
	.st3{fill:none;stroke:#414042;stroke-width:0.4142;stroke-miterlimit:10;}
	.st4{fill:none;stroke:#FAA41A;stroke-width:0.4142;stroke-miterlimit:10;}
	.st5{fill:none;stroke:#414042;stroke-width:0.3;stroke-linejoin:round;}
	.st6{fill:none;stroke:#FAA41A;stroke-width:0.3;stroke-miterlimit:10;}
	.st7{fill:none;stroke:#414042;stroke-width:0.3313;stroke-linejoin:round;}
	.st8{fill:none;stroke:#FAA41A;stroke-width:0.3313;stroke-miterlimit:10;}
</style>
<polygon class="st5" points="4.4,23.2 3.6,23.8 3.6,21.2 4.4,20.7 "/>
<path class="st6" d="M5.3,24.3c-0.1,0-0.2,0.1-0.2,0.2l0,0v2.7c0,0.1,0.1,0.2,0.2,0.2c0.1,0,0.2-0.1,0.2-0.2l0,0v-2.7
	C5.5,24.4,5.4,24.3,5.3,24.3L5.3,24.3z"/>
<path class="st6" d="M4,24.7c-0.1,0-0.2,0.1-0.2,0.2l0,0v2.7c0,0.1,0.1,0.2,0.2,0.2s0.2-0.1,0.2-0.2l0,0v-2.7
	C4.1,24.7,4,24.7,4,24.7L4,24.7z"/>
<path class="st6" d="M4,23.1c0.1,0,0.2-0.1,0.2-0.2l0,0v-1.6c0-0.1-0.1-0.2-0.2-0.2c-0.1,0-0.2,0.1-0.2,0.2v1.6
	C3.8,23,3.8,23.1,4,23.1z"/>
<g>
	<path class="st7" d="M43.6,16.3l-1.3-0.8c0,0-0.1,0-0.1,0l0,0l-3.7-0.8c0,0,0,0-0.1,0h0h-4.8c0,0,0,0,0,0l0,0l-3.7,0.8h0v-1
		c0,0,0,0,0-0.1h1.1c0,0,0.1,0,0.1-0.1c0,0,0.1-0.1,0.1-0.1v-0.4c0,0,0,0,0,0v0c0-0.1,0-0.2-0.1-0.2l-1.5-0.4h0h-0.7v0
		c0-0.1-0.1-0.2-0.2-0.2l-1.5-0.2h-8.8l-1.5,0.2c-0.1,0-0.2,0.1-0.2,0.2v0h-0.7h0l-1.5,0.4c-0.1,0-0.2,0.1-0.1,0.2v0c0,0,0,0,0,0
		v0.4c0,0.1,0.1,0.2,0.2,0.2l0,0h1.1c0,0,0,0,0,0.1v1h0l-3.7-0.8c0,0,0,0-0.1,0h0H6.5h0l0,0l-3.7,0.8l0,0c0,0-0.1,0-0.1,0l-1.3,0.8
		c0,0-0.1,0.1-0.1,0.2v15.7c0,0.1,0.1,0.2,0.2,0.2c0.1,0,0.2-0.1,0.2-0.2v-3.3l0,0v-9.1l0.9-0.6v12.9c0,0.1,0.1,0.2,0.2,0.2l0,0h0h0
		c0.1,0,0.2-0.1,0.2-0.2l0,0V19l3.4-0.7v13.8c0,0.1,0.1,0.2,0.2,0.2l0,0c0,0,0.1,0,0.1,0c0,0,0.1-0.1,0.1-0.2V18.3h4.4v13.9
		c0,0.1,0.1,0.2,0.2,0.2l0,0h0.1c0.1,0,0.2-0.1,0.2-0.2l0,0V18.3L15,19v13.1c0,0.1,0.1,0.2,0.2,0.2l0,0h0h0c0.1,0,0.2-0.1,0.2-0.2
		l0,0V19.2l0.9,0.6v11.5l0,0v0.9c0,0.1,0.1,0.2,0.2,0.2l0,0h0c0.1,0,0.1-0.1,0.1-0.2v-0.7h11.6v0.7c0,0.1,0.1,0.2,0.2,0.2
		s0.2-0.1,0.2-0.2V19.8l0.9-0.6v12.9c0,0.1,0.1,0.2,0.2,0.2l0,0h0h0c0.1,0,0.2-0.1,0.2-0.2l0,0V19l3.4-0.7v13.8
		c0,0.1,0.1,0.2,0.2,0.2l0,0c0.1,0,0.2-0.1,0.2-0.2V18.3h4.4v13.9c0,0.1,0.1,0.2,0.2,0.2l0,0h0.1c0.1,0,0.2-0.1,0.2-0.2l0,0V18.3
		l3.4,0.7v13.1c0,0.1,0.1,0.2,0.2,0.2l0,0h0h0c0.1,0,0.2-0.1,0.2-0.2l0,0V19.2l0.9,0.6v12.4c0,0.1,0.1,0.2,0.2,0.2
		c0.1,0,0.2-0.1,0.2-0.2V16.4C43.7,16.3,43.7,16.3,43.6,16.3z"/>
	<polygon class="st7" points="6.4,17.9 3,18.6 3,15.8 6.4,15.1 	"/>
	<rect x="6.7" y="15" class="st7" width="4.4" height="2.9"/>
	<polygon class="st7" points="15,18.6 11.6,17.9 11.6,15.1 15,15.8 	"/>
	<path class="st7" d="M27.1,15.7c0,0.1,0.1,0.1,0.1,0.1l0,0c0,0,0.1,0,0.1,0l0,0v0.9h-1.1v-0.9l0,0c0,0,0.1,0,0.1,0h0
		c0,0,0.1,0,0.1-0.1c0,0,0-0.1,0-0.2c0-0.1,0-0.2-0.1-0.3c0,0,0-0.1,0-0.1c0,0,0,0,0.1-0.1c0.1-0.1,0.2-0.1,0.3-0.1l0.1,0h0
		c0.1,0,0.2,0.1,0.3,0.1c0,0,0.1,0,0.1,0.1c0,0,0,0,0,0l0,0c0,0,0,0.1,0,0.1c-0.1,0.1-0.1,0.2-0.1,0.3C27,15.6,27,15.6,27.1,15.7z"
		/>
	<path class="st7" d="M17.8,15.2C17.8,15.2,17.8,15.2,17.8,15.2c0-0.1,0-0.1,0-0.2C18,15,18,15,18.1,14.9l0.1,0h0
		c0.1,0,0.2,0.1,0.3,0.1c0,0,0.1,0,0.1,0.1l0,0l0,0c0,0,0,0.1,0,0.1c-0.1,0.1-0.1,0.2-0.1,0.3c0,0,0,0.1,0,0.1
		c0,0.1,0.1,0.1,0.1,0.1l0,0c0,0,0.1,0,0.1,0l0,0v0.9h-1.1v-0.9l0,0c0,0,0.1,0,0.1,0h0c0,0,0.1-0.1,0.1-0.1c0,0,0-0.1,0-0.2
		C17.9,15.4,17.9,15.3,17.8,15.2z"/>
	<path class="st7" d="M19.4,15.8L19.4,15.8C19.4,15.8,19.4,15.8,19.4,15.8l0.1,0c0,0,0.1,0,0.1-0.1c0,0,0-0.1,0-0.2
		c0-0.1,0-0.2-0.1-0.3c0,0,0-0.1,0-0.1c0,0,0,0,0.1-0.1c0.1-0.1,0.2-0.1,0.3-0.1l0.1,0l0,0c0.1,0,0.2,0.1,0.3,0.1c0,0,0.1,0,0.1,0.1
		c0,0,0,0,0,0l0,0c0,0,0,0.1,0,0.1c-0.1,0.1-0.1,0.2-0.1,0.3c0,0,0,0.1,0,0.1c0,0.1,0.1,0.1,0.1,0.1l0,0c0,0,0,0,0.1,0l0,0v0.9h-1.1
		V15.8z"/>
	<path class="st7" d="M21.1,15.8L21.1,15.8C21.1,15.8,21.1,15.8,21.1,15.8l0.1,0c0,0,0.1,0,0.1-0.1c0,0,0-0.1,0-0.2
		c0-0.1,0-0.2-0.1-0.3c0,0,0-0.1,0-0.1c0,0,0,0,0.1-0.1c0.1-0.1,0.2-0.1,0.3-0.1l0.1,0h0c0.1,0,0.2,0.1,0.3,0.1c0,0,0.1,0,0.1,0.1
		l0,0l0,0c0,0,0,0.1,0,0.1c-0.1,0.1-0.1,0.2-0.1,0.3c0,0,0,0.1,0,0.1c0,0.1,0.1,0.1,0.1,0.1l0,0c0,0,0,0,0.1,0l0,0v0.9H21L21.1,15.8
		z"/>
	<path class="st7" d="M22.8,15.8L22.8,15.8C22.8,15.8,22.9,15.8,22.8,15.8l0.1,0c0,0,0.1,0,0.1-0.1c0,0,0-0.1,0-0.2
		c0-0.1,0-0.2-0.1-0.3c0,0,0-0.1,0-0.1c0,0,0,0,0.1-0.1c0.1-0.1,0.2-0.1,0.3-0.1l0.1,0h0c0.1,0,0.2,0.1,0.3,0.1c0,0,0.1,0,0.1,0.1
		c0,0,0,0,0,0l0,0c0,0,0,0.1,0,0.1c-0.1,0.1-0.1,0.2-0.1,0.3c0,0,0,0.1,0,0.1c0,0.1,0.1,0.1,0.1,0.1l0,0c0,0,0.1,0,0.1,0l0,0v0.9
		h-1.1V15.8z"/>
	<path class="st7" d="M24.5,15.8L24.5,15.8C24.5,15.8,24.6,15.8,24.5,15.8l0.1,0c0,0,0.1-0.1,0.1-0.1c0,0,0-0.1,0-0.2
		c0-0.1,0-0.2-0.1-0.3c0,0,0,0,0-0.1c0,0,0,0,0.1-0.1c0.1-0.1,0.2-0.1,0.3-0.1l0.1,0h0c0.1,0,0.2,0.1,0.3,0.1c0,0,0.1,0,0.1,0.1v0
		l0,0c0,0,0,0.1,0,0.1c-0.1,0.1-0.1,0.2-0.1,0.3c0,0,0,0.1,0,0.1c0,0.1,0.1,0.1,0.1,0.1l0,0c0,0,0.1,0,0.1,0l0,0v0.9h-1.1V15.8z"/>
	<polygon class="st7" points="16.3,19.3 15.4,18.8 15.4,16 16.3,16.5 	"/>
	<path class="st8" d="M24.5,31h-3.9v-5.3l0,0c0-0.6,0.3-1.1,1-1.5c0.3-0.2,0.6-0.3,1-0.4c0.3,0.1,0.7,0.2,1,0.4c0.7,0.4,1,0.9,1,1.5
		L24.5,31L24.5,31z"/>
	<path class="st8" d="M25.3,25.6V31h-0.5v-5.3l0,0c0-0.8-0.4-1.4-1.2-1.9c-0.3-0.2-0.7-0.3-1.1-0.4c0,0-0.1,0-0.1,0
		c-0.4,0.1-0.8,0.3-1.1,0.5c-0.8,0.4-1.2,1.1-1.2,1.9l0,0l0,0c0,1.3,0,3.9,0,5.3h-0.5v-5.4l0,0c0-1.1,0.7-1.9,1.4-2.3
		c0.3-0.2,0.6-0.3,1-0.4c0.1,0,0.2-0.1,0.3-0.1l0.1,0h0h0c0.5,0.1,0.9,0.3,1.4,0.5C24.6,23.8,25.3,24.5,25.3,25.6L25.3,25.6z"/>
	<rect x="17.7" y="20.2" class="st7" width="9.5" height="0"/>
	<path class="st7" d="M28.3,31.1h-1V20.7c0,0,0-0.1,0-0.1h0.1c0,0,0.1,0,0.1,0c0,0,0-0.1,0.1-0.1V20c0,0,0-0.1-0.1-0.1
		s-0.1-0.1-0.1-0.1h-9.9c-0.1,0-0.2,0.1-0.2,0.2v0.4c0,0,0,0.1,0.1,0.1s0.1,0,0.1,0h0.1c0,0.1,0,0.1,0,0.1V31h-1V18.2h1.7
		c0,0,0,0,0,0c0,0.1,0.1,0.2,0.2,0.2l0,0c0.1,0,0.1,0,0.2,0.1c0.1,0.1,0.1,0.2,0.1,0.3s0.1,0.2,0.2,0.2l0,0h0c0.1,0,0.2-0.1,0.2-0.2
		l0,0c0-0.1,0-0.2,0.1-0.3c0-0.1,0.2-0.1,0.3-0.1c0,0,0.1,0,0.1,0.1c0.1,0.1,0.1,0.2,0.1,0.3s0.1,0.2,0.2,0.2l0,0h0
		c0.1,0,0.2-0.1,0.2-0.2c0-0.1,0-0.2,0.1-0.3c0-0.1,0.2-0.1,0.3-0.1c0,0,0.1,0,0.1,0.1c0.1,0.1,0.1,0.2,0.1,0.3s0.1,0.2,0.2,0.2h0
		c0.1,0,0.2-0.1,0.2-0.2c0-0.1,0-0.2,0.1-0.3c0-0.1,0.2-0.1,0.3-0.1c0,0,0.1,0,0.1,0.1c0.1,0.1,0.1,0.2,0.1,0.3s0.1,0.2,0.2,0.2l0,0
		H22c0.1,0,0.2-0.1,0.2-0.2c0-0.1,0-0.2,0.1-0.3c0-0.1,0.2-0.1,0.3-0.1c0,0,0.1,0,0.1,0.1c0.1,0.1,0.1,0.2,0.1,0.3s0.1,0.2,0.2,0.2
		h0c0.1,0,0.2-0.1,0.2-0.2l0,0c0-0.1,0-0.2,0.1-0.3c0-0.1,0.2-0.1,0.3-0.1c0,0,0.1,0,0.1,0.1c0.1,0.1,0.1,0.2,0.1,0.3
		s0.1,0.2,0.2,0.2l0,0h0c0.1,0,0.2-0.1,0.2-0.2l0,0l0,0c0-0.1,0-0.2,0.1-0.3c0-0.1,0.2-0.1,0.3-0.1c0,0,0.1,0,0.1,0.1
		c0.1,0.1,0.1,0.2,0.1,0.3s0.1,0.2,0.2,0.2l0,0h0c0.1,0,0.2-0.1,0.2-0.2c0-0.1,0-0.2,0.1-0.3c0-0.1,0.1-0.1,0.2-0.1
		c0.1,0,0.1,0,0.2,0.1c0.1,0.1,0.1,0.2,0.1,0.3s0.1,0.2,0.2,0.2l0,0h0c0.1,0,0.2-0.1,0.2-0.2l0,0c0-0.1,0-0.2,0.1-0.3
		c0-0.1,0.1-0.1,0.2-0.1c0.1,0,0.2-0.1,0.2-0.2l0,0c0,0,0,0,0,0h1.7L28.3,31.1z"/>
	<rect x="17.9" y="17.6" class="st7" width="9.3" height="0"/>
	<polygon class="st7" points="29.6,18.8 28.7,19.3 28.7,16.5 29.3,16.1 29.6,16 	"/>
	<polygon class="st7" points="33.4,17.9 30,18.6 30,15.8 33.4,15.1 	"/>
	<rect x="33.8" y="15" class="st7" width="4.4" height="2.9"/>
	<polygon class="st7" points="42,18.6 38.6,17.9 38.6,15.1 42,15.8 	"/>
	<polygon class="st7" points="43.3,19.3 42.5,18.8 42.5,16 43.3,16.5 	"/>
	<path class="st8" d="M32.8,19.4c-0.1,0-0.2,0.1-0.2,0.2l0,0v3c0,0.1,0.1,0.2,0.2,0.2s0.2-0.1,0.2-0.2v-3C33,19.5,33,19.4,32.8,19.4
		L32.8,19.4z"/>
	<path class="st8" d="M34.6,19.2c-0.1,0-0.2,0.1-0.2,0.2l0,0v3c0,0.1,0.1,0.2,0.2,0.2c0.1,0,0.2-0.1,0.2-0.2v-3
		C34.8,19.3,34.7,19.2,34.6,19.2z"/>
	<path class="st8" d="M30.5,19.9c-0.1,0-0.2,0.1-0.2,0.2l0,0v3c0,0.1,0.1,0.2,0.2,0.2c0.1,0,0.2-0.1,0.2-0.2v-3
		C30.7,20,30.7,19.9,30.5,19.9L30.5,19.9z"/>
	<path class="st8" d="M41.4,19.9c-0.1,0-0.2,0.1-0.2,0.2v3c0,0.1,0.1,0.2,0.2,0.2s0.2-0.1,0.2-0.2v-3C41.5,20,41.4,19.9,41.4,19.9z"
		/>
	<path class="st8" d="M39.2,19.4c-0.1,0-0.2,0.1-0.2,0.2v3c0,0.1,0.1,0.2,0.2,0.2s0.2-0.1,0.2-0.2v-3C39.4,19.5,39.4,19.4,39.2,19.4
		z"/>
	<path class="st8" d="M37.5,19.2c-0.1,0-0.2,0.1-0.2,0.2v3c0,0.1,0.1,0.2,0.2,0.2c0.1,0,0.2-0.1,0.2-0.2v-3
		C37.7,19.3,37.6,19.2,37.5,19.2z"/>
	<path class="st8" d="M10.5,19.2c-0.1,0-0.2,0.1-0.2,0.2v3c0,0.1,0.1,0.2,0.2,0.2c0.1,0,0.2-0.1,0.2-0.2v-3
		C10.7,19.3,10.6,19.2,10.5,19.2z"/>
	<path class="st8" d="M42.9,20.3c-0.1,0-0.2,0.1-0.2,0.2l0,0v3c0,0.1,0.1,0.2,0.2,0.2s0.2-0.1,0.2-0.2v-3
		C43.1,20.4,43,20.3,42.9,20.3L42.9,20.3z"/>
	<path class="st8" d="M5.8,19.4c-0.1,0-0.2,0.1-0.2,0.2l0,0v3c0,0.1,0.1,0.2,0.2,0.2c0.1,0,0.2-0.1,0.2-0.2l0,0v-3
		C6,19.5,5.9,19.4,5.8,19.4L5.8,19.4z"/>
	<path class="st8" d="M7.5,19.2c-0.1,0-0.2,0.1-0.2,0.2l0,0v3c0,0.1,0.1,0.2,0.2,0.2c0.1,0,0.2-0.1,0.2-0.2v-3
		C7.7,19.3,7.7,19.2,7.5,19.2z"/>
	<path class="st8" d="M15.9,20.3c-0.1,0-0.2,0.1-0.2,0.2l0,0v3c0,0.1,0.1,0.2,0.2,0.2c0.1,0,0.2-0.1,0.2-0.2v-3
		C16.1,20.4,16,20.3,15.9,20.3L15.9,20.3z"/>
	<path class="st8" d="M29,20.3c-0.1,0-0.2,0.1-0.2,0.2l0,0v3c0,0.1,0.1,0.2,0.2,0.2c0.1,0,0.2-0.1,0.2-0.2v-3
		C29.2,20.4,29.1,20.3,29,20.3z"/>
	<path class="st8" d="M14.5,19.9c-0.1,0-0.2,0.1-0.2,0.2l0,0v3c0,0.1,0.1,0.2,0.2,0.2s0.2-0.1,0.2-0.2v-3
		C14.7,20,14.6,19.9,14.5,19.9L14.5,19.9z"/>
	<path class="st8" d="M12.2,19.4c-0.1,0-0.2,0.1-0.2,0.2l0,0v3c0,0.1,0.1,0.2,0.2,0.2c0.1,0,0.2-0.1,0.2-0.2l0,0v-3
		C12.4,19.5,12.3,19.4,12.2,19.4z"/>
	<path class="st8" d="M36,15.4c-0.1,0-0.3,0.1-0.4,0.1c-0.3,0.1-0.4,0.4-0.4,0.7v1.2c0,0.1,0.1,0.2,0.2,0.2h1.3
		c0.1,0,0.2-0.1,0.2-0.2v-1.2c0-0.3-0.2-0.6-0.4-0.7c-0.1,0-0.2-0.1-0.3-0.1L36,15.4L36,15.4L36,15.4C36.1,15.4,36.1,15.4,36,15.4
		L36,15.4"/>
	<path class="st8" d="M40.4,15.8L40.4,15.8c-0.1,0-0.2,0-0.3,0.1c-0.2,0.1-0.4,0.4-0.4,0.6v1.2c0,0.1,0.1,0.2,0.2,0.2l1,0.2
		c0,0,0,0,0,0c0,0,0.1,0,0.1,0c0,0,0.1-0.1,0.1-0.2v-1.2l0,0l0,0c0-0.3-0.1-0.5-0.3-0.7c-0.1-0.1-0.1-0.1-0.2-0.2l-0.1,0h0l0,0l0,0
		l0,0C40.5,15.8,40.4,15.8,40.4,15.8L40.4,15.8"/>
	<path class="st8" d="M13.4,15.8L13.4,15.8c-0.1,0-0.2,0-0.3,0.1c-0.2,0.1-0.4,0.4-0.4,0.6v1.2c0,0.1,0.1,0.2,0.2,0.2l1,0.2
		c0,0,0,0,0,0c0,0,0.1,0,0.1,0c0,0,0.1-0.1,0.1-0.2v-1.2l0,0l0,0c0-0.3-0.1-0.6-0.3-0.7c-0.1-0.1-0.1-0.1-0.2-0.2l-0.1,0h0l0,0l0,0
		C13.5,15.8,13.5,15.8,13.4,15.8L13.4,15.8"/>
	<path class="st8" d="M29,16.4c-0.1,0-0.2,0.1-0.2,0.2l0,0v1.7c0,0.1,0.1,0.2,0.2,0.2c0.1,0,0.2-0.1,0.2-0.2l0,0v-1.7
		C29.2,16.5,29.1,16.4,29,16.4L29,16.4z"/>
	<path class="st8" d="M31.1,18.1c0,0,0.1,0,0.1,0c0,0,0,0,0,0l1-0.2c0.1,0,0.2-0.1,0.2-0.2v-1.3c0-0.3-0.1-0.5-0.4-0.6
		c-0.1,0-0.2-0.1-0.2-0.1h-0.1h-0.1c0,0,0,0-0.1,0l0,0c-0.1,0-0.2,0.1-0.3,0.2c-0.2,0.2-0.3,0.5-0.3,0.7V18C31,18,31,18.1,31.1,18.1
		z"/>
	<path class="st8" d="M4,18c0,0.1,0,0.1,0.1,0.2c0,0,0.1,0,0.1,0c0,0,0,0,0,0l1-0.2c0.1,0,0.2-0.1,0.2-0.2v-1.3
		c0-0.3-0.1-0.5-0.3-0.6c-0.1,0-0.2-0.1-0.2-0.1H4.7h0c0,0,0,0-0.1,0l0,0c-0.1,0-0.2,0.1-0.3,0.2C4.1,16.2,4,16.5,4,16.8L4,18L4,18z
		"/>
	<path class="st8" d="M15.9,18.5c0.1,0,0.2-0.1,0.2-0.2l0,0v-1.7c0-0.1-0.1-0.2-0.2-0.2c-0.1,0-0.2,0.1-0.2,0.2v1.7
		C15.7,18.5,15.8,18.5,15.9,18.5z"/>
	<path class="st8" d="M42.9,18.5c0.1,0,0.2-0.1,0.2-0.2l0,0v-1.7c0-0.1-0.1-0.2-0.2-0.2s-0.2,0.1-0.2,0.2v1.7
		C42.7,18.5,42.8,18.5,42.9,18.5z"/>
	<path class="st8" d="M8.2,17.6c0,0,0.1,0.1,0.1,0.1h1.3c0,0,0.1,0,0.1-0.1s0.1-0.1,0.1-0.1c0-0.3,0-0.8,0-1.2l0,0
		c0-0.3-0.2-0.6-0.4-0.7c-0.1,0-0.2-0.1-0.3-0.1l-0.1,0h0h0c0,0,0,0-0.1,0l0,0c-0.1,0-0.3,0.1-0.4,0.1c-0.3,0.1-0.4,0.4-0.4,0.7l0,0
		c0,0.4,0,1,0,1.2C8.2,17.5,8.2,17.5,8.2,17.6z"/>
	<line class="st7" x1="1.3" y1="32.3" x2="43.7" y2="32.3"/>
	<path class="st8" d="M25.3,25.6V31h-0.5v-5.3l0,0c0-0.8-0.4-1.4-1.2-1.9c-0.3-0.2-0.7-0.3-1.1-0.4c0,0-0.1,0-0.1,0
		c-0.4,0.1-0.8,0.3-1.1,0.5c-0.8,0.4-1.2,1.1-1.2,1.9l0,0l0,0c0,1.3,0,3.9,0,5.3h-0.5v-5.4l0,0c0-1.1,0.7-1.9,1.4-2.3
		c0.3-0.2,0.6-0.3,1-0.4c0.1,0,0.2-0.1,0.3-0.1l0.1,0h0h0c0.5,0.1,0.9,0.3,1.4,0.5C24.6,23.8,25.3,24.5,25.3,25.6L25.3,25.6z"/>
	<line class="st7" x1="28.7" y1="14" x2="16.1" y2="14"/>
	<line class="st7" x1="28.7" y1="13.6" x2="16.1" y2="13.6"/>
</g>
</svg>
